<svg width="11" height="12" viewBox="0 0 11 12" fill="none" xmlns="http://www.w3.org/2000/svg">
<path d="M9.625 0.875H8.3125V0.4375C8.3125 0.321468 8.26641 0.210188 8.18436 0.128141C8.10231 0.0460936 7.99103 0 7.875 0C7.75897 0 7.64769 0.0460936 7.56564 0.128141C7.48359 0.210188 7.4375 0.321468 7.4375 0.4375V0.875H3.0625V0.4375C3.0625 0.321468 3.01641 0.210188 2.93436 0.128141C2.85231 0.0460936 2.74103 0 2.625 0C2.50897 0 2.39769 0.0460936 2.31564 0.128141C2.23359 0.210188 2.1875 0.321468 2.1875 0.4375V0.875H0.875C0.642936 0.875 0.420376 0.967187 0.256282 1.13128C0.0921872 1.29538 0 1.51794 0 1.75V10.5C0 10.7321 0.0921872 10.9546 0.256282 11.1187C0.420376 11.2828 0.642936 11.375 0.875 11.375H9.625C9.85706 11.375 10.0796 11.2828 10.2437 11.1187C10.4078 10.9546 10.5 10.7321 10.5 10.5V1.75C10.5 1.51794 10.4078 1.29538 10.2437 1.13128C10.0796 0.967187 9.85706 0.875 9.625 0.875ZM2.1875 1.75V2.1875C2.1875 2.30353 2.23359 2.41481 2.31564 2.49686C2.39769 2.57891 2.50897 2.625 2.625 2.625C2.74103 2.625 2.85231 2.57891 2.93436 2.49686C3.01641 2.41481 3.0625 2.30353 3.0625 2.1875V1.75H7.4375V2.1875C7.4375 2.30353 7.48359 2.41481 7.56564 2.49686C7.64769 2.57891 7.75897 2.625 7.875 2.625C7.99103 2.625 8.10231 2.57891 8.18436 2.49686C8.26641 2.41481 8.3125 2.30353 8.3125 2.1875V1.75H9.625V3.5H0.875V1.75H2.1875ZM9.625 10.5H0.875V4.375H9.625V10.5ZM5.90625 6.34375C5.90625 6.47354 5.86776 6.60042 5.79565 6.70834C5.72354 6.81626 5.62105 6.90038 5.50114 6.95005C5.38122 6.99972 5.24927 7.01271 5.12197 6.98739C4.99467 6.96207 4.87774 6.89957 4.78596 6.80779C4.69418 6.71601 4.63168 6.59908 4.60636 6.47178C4.58104 6.34448 4.59403 6.21253 4.6437 6.09261C4.69337 5.9727 4.77749 5.87021 4.88541 5.7981C4.99333 5.72599 5.12021 5.6875 5.25 5.6875C5.42405 5.6875 5.59097 5.75664 5.71404 5.87971C5.83711 6.00278 5.90625 6.1697 5.90625 6.34375ZM8.3125 6.34375C8.3125 6.47354 8.27401 6.60042 8.2019 6.70834C8.12979 6.81626 8.0273 6.90038 7.90739 6.95005C7.78747 6.99972 7.65552 7.01271 7.52822 6.98739C7.40092 6.96207 7.28399 6.89957 7.19221 6.80779C7.10043 6.71601 7.03793 6.59908 7.01261 6.47178C6.98729 6.34448 7.00028 6.21253 7.04995 6.09261C7.09962 5.9727 7.18374 5.87021 7.29166 5.7981C7.39958 5.72599 7.52646 5.6875 7.65625 5.6875C7.8303 5.6875 7.99722 5.75664 8.12029 5.87971C8.24336 6.00278 8.3125 6.1697 8.3125 6.34375ZM3.5 8.53125C3.5 8.66104 3.46151 8.78792 3.3894 8.89584C3.31729 9.00376 3.2148 9.08788 3.09489 9.13755C2.97497 9.18722 2.84302 9.20021 2.71572 9.17489C2.58842 9.14957 2.47149 9.08707 2.37971 8.99529C2.28793 8.90351 2.22543 8.78658 2.20011 8.65928C2.17479 8.53198 2.18778 8.40003 2.23745 8.28011C2.28712 8.1602 2.37124 8.05771 2.47916 7.9856C2.58708 7.91349 2.71396 7.875 2.84375 7.875C3.0178 7.875 3.18472 7.94414 3.30779 8.06721C3.43086 8.19028 3.5 8.3572 3.5 8.53125ZM5.90625 8.53125C5.90625 8.66104 5.86776 8.78792 5.79565 8.89584C5.72354 9.00376 5.62105 9.08788 5.50114 9.13755C5.38122 9.18722 5.24927 9.20021 5.12197 9.17489C4.99467 9.14957 4.87774 9.08707 4.78596 8.99529C4.69418 8.90351 4.63168 8.78658 4.60636 8.65928C4.58104 8.53198 4.59403 8.40003 4.6437 8.28011C4.69337 8.1602 4.77749 8.05771 4.88541 7.9856C4.99333 7.91349 5.12021 7.875 5.25 7.875C5.42405 7.875 5.59097 7.94414 5.71404 8.06721C5.83711 8.19028 5.90625 8.3572 5.90625 8.53125ZM8.3125 8.53125C8.3125 8.66104 8.27401 8.78792 8.2019 8.89584C8.12979 9.00376 8.0273 9.08788 7.90739 9.13755C7.78747 9.18722 7.65552 9.20021 7.52822 9.17489C7.40092 9.14957 7.28399 9.08707 7.19221 8.99529C7.10043 8.90351 7.03793 8.78658 7.01261 8.65928C6.98729 8.53198 7.00028 8.40003 7.04995 8.28011C7.09962 8.1602 7.18374 8.05771 7.29166 7.9856C7.39958 7.91349 7.52646 7.875 7.65625 7.875C7.8303 7.875 7.99722 7.94414 8.12029 8.06721C8.24336 8.19028 8.3125 8.3572 8.3125 8.53125Z" fill="#636363"/>
</svg>
