<svg width="12" height="12" viewBox="0 0 12 12" fill="none" xmlns="http://www.w3.org/2000/svg">
<path d="M5.6875 0C4.56262 0 3.463 0.333566 2.5277 0.958517C1.59239 1.58347 0.863411 2.47173 0.432938 3.51099C0.00246431 4.55024 -0.110167 5.69381 0.109286 6.79708C0.32874 7.90034 0.870422 8.91376 1.66583 9.70917C2.46124 10.5046 3.47466 11.0463 4.57793 11.2657C5.68119 11.4852 6.82476 11.3725 7.86401 10.9421C8.90327 10.5116 9.79154 9.78261 10.4165 8.8473C11.0414 7.912 11.375 6.81238 11.375 5.6875C11.3734 4.17957 10.7737 2.73386 9.70741 1.66759C8.64115 0.601321 7.19543 0.0015924 5.6875 0ZM5.6875 10.5C4.73568 10.5 3.80523 10.2178 3.01382 9.68895C2.22241 9.16014 1.60558 8.40853 1.24133 7.52916C0.877086 6.64979 0.781782 5.68216 0.967473 4.74863C1.15316 3.81509 1.61151 2.95759 2.28455 2.28455C2.95759 1.61151 3.8151 1.15316 4.74863 0.967471C5.68216 0.781779 6.6498 0.877083 7.52917 1.24133C8.40854 1.60558 9.16015 2.22241 9.68895 3.01382C10.2178 3.80523 10.5 4.73568 10.5 5.6875C10.4986 6.96341 9.99106 8.18665 9.08886 9.08885C8.18665 9.99106 6.96341 10.4986 5.6875 10.5ZM9.1875 5.6875C9.1875 5.80353 9.14141 5.91481 9.05936 5.99686C8.97731 6.07891 8.86603 6.125 8.75 6.125H5.6875C5.57147 6.125 5.46019 6.07891 5.37814 5.99686C5.2961 5.91481 5.25 5.80353 5.25 5.6875V2.625C5.25 2.50897 5.2961 2.39769 5.37814 2.31564C5.46019 2.23359 5.57147 2.1875 5.6875 2.1875C5.80353 2.1875 5.91481 2.23359 5.99686 2.31564C6.07891 2.39769 6.125 2.50897 6.125 2.625V5.25H8.75C8.86603 5.25 8.97731 5.29609 9.05936 5.37814C9.14141 5.46019 9.1875 5.57147 9.1875 5.6875Z" fill="#636363"/>
</svg>
