<svg width="14" height="14" viewBox="0 0 14 14" fill="none" xmlns="http://www.w3.org/2000/svg">
<path opacity="0.2" d="M11.8125 2.625V4.8125H2.1875V2.625C2.1875 2.50897 2.23359 2.39769 2.31564 2.31564C2.39769 2.23359 2.50897 2.1875 2.625 2.1875H11.375C11.491 2.1875 11.6023 2.23359 11.6844 2.31564C11.7664 2.39769 11.8125 2.50897 11.8125 2.625Z" fill="#636363"/>
<path d="M11.375 1.75H10.0625V1.3125C10.0625 1.19647 10.0164 1.08519 9.93436 1.00314C9.85231 0.921094 9.74103 0.875 9.625 0.875C9.50897 0.875 9.39769 0.921094 9.31564 1.00314C9.23359 1.08519 9.1875 1.19647 9.1875 1.3125V1.75H4.8125V1.3125C4.8125 1.19647 4.76641 1.08519 4.68436 1.00314C4.60231 0.921094 4.49103 0.875 4.375 0.875C4.25897 0.875 4.14769 0.921094 4.06564 1.00314C3.98359 1.08519 3.9375 1.19647 3.9375 1.3125V1.75H2.625C2.39294 1.75 2.17038 1.84219 2.00628 2.00628C1.84219 2.17038 1.75 2.39294 1.75 2.625V11.375C1.75 11.6071 1.84219 11.8296 2.00628 11.9937C2.17038 12.1578 2.39294 12.25 2.625 12.25H11.375C11.6071 12.25 11.8296 12.1578 11.9937 11.9937C12.1578 11.8296 12.25 11.6071 12.25 11.375V2.625C12.25 2.39294 12.1578 2.17038 11.9937 2.00628C11.8296 1.84219 11.6071 1.75 11.375 1.75ZM3.9375 2.625V3.0625C3.9375 3.17853 3.98359 3.28981 4.06564 3.37186C4.14769 3.45391 4.25897 3.5 4.375 3.5C4.49103 3.5 4.60231 3.45391 4.68436 3.37186C4.76641 3.28981 4.8125 3.17853 4.8125 3.0625V2.625H9.1875V3.0625C9.1875 3.17853 9.23359 3.28981 9.31564 3.37186C9.39769 3.45391 9.50897 3.5 9.625 3.5C9.74103 3.5 9.85231 3.45391 9.93436 3.37186C10.0164 3.28981 10.0625 3.17853 10.0625 3.0625V2.625H11.375V4.375H2.625V2.625H3.9375ZM11.375 11.375H2.625V5.25H11.375V11.375ZM7.65625 7.21875C7.65625 7.34854 7.61776 7.47542 7.54565 7.58334C7.47354 7.69126 7.37105 7.77538 7.25114 7.82505C7.13122 7.87472 6.99927 7.88771 6.87197 7.86239C6.74467 7.83707 6.62774 7.77457 6.53596 7.68279C6.44418 7.59101 6.38168 7.47408 6.35636 7.34678C6.33104 7.21948 6.34403 7.08753 6.3937 6.96761C6.44337 6.8477 6.52749 6.74521 6.63541 6.6731C6.74333 6.60099 6.87021 6.5625 7 6.5625C7.17405 6.5625 7.34097 6.63164 7.46404 6.75471C7.58711 6.87778 7.65625 7.0447 7.65625 7.21875ZM10.0625 7.21875C10.0625 7.34854 10.024 7.47542 9.9519 7.58334C9.87979 7.69126 9.7773 7.77538 9.65739 7.82505C9.53747 7.87472 9.40552 7.88771 9.27822 7.86239C9.15092 7.83707 9.03399 7.77457 8.94221 7.68279C8.85043 7.59101 8.78793 7.47408 8.76261 7.34678C8.73729 7.21948 8.75028 7.08753 8.79995 6.96761C8.84962 6.8477 8.93374 6.74521 9.04166 6.6731C9.14958 6.60099 9.27646 6.5625 9.40625 6.5625C9.5803 6.5625 9.74722 6.63164 9.87029 6.75471C9.99336 6.87778 10.0625 7.0447 10.0625 7.21875ZM5.25 9.40625C5.25 9.53604 5.21151 9.66292 5.1394 9.77084C5.06729 9.87876 4.9648 9.96288 4.84489 10.0125C4.72497 10.0622 4.59302 10.0752 4.46572 10.0499C4.33842 10.0246 4.22149 9.96207 4.12971 9.87029C4.03793 9.77851 3.97543 9.66158 3.95011 9.53428C3.92479 9.40698 3.93778 9.27503 3.98745 9.15511C4.03712 9.0352 4.12124 8.93271 4.22916 8.8606C4.33708 8.78849 4.46396 8.75 4.59375 8.75C4.7678 8.75 4.93472 8.81914 5.05779 8.94221C5.18086 9.06528 5.25 9.2322 5.25 9.40625ZM7.65625 9.40625C7.65625 9.53604 7.61776 9.66292 7.54565 9.77084C7.47354 9.87876 7.37105 9.96288 7.25114 10.0125C7.13122 10.0622 6.99927 10.0752 6.87197 10.0499C6.74467 10.0246 6.62774 9.96207 6.53596 9.87029C6.44418 9.77851 6.38168 9.66158 6.35636 9.53428C6.33104 9.40698 6.34403 9.27503 6.3937 9.15511C6.44337 9.0352 6.52749 8.93271 6.63541 8.8606C6.74333 8.78849 6.87021 8.75 7 8.75C7.17405 8.75 7.34097 8.81914 7.46404 8.94221C7.58711 9.06528 7.65625 9.2322 7.65625 9.40625ZM10.0625 9.40625C10.0625 9.53604 10.024 9.66292 9.9519 9.77084C9.87979 9.87876 9.7773 9.96288 9.65739 10.0125C9.53747 10.0622 9.40552 10.0752 9.27822 10.0499C9.15092 10.0246 9.03399 9.96207 8.94221 9.87029C8.85043 9.77851 8.78793 9.66158 8.76261 9.53428C8.73729 9.40698 8.75028 9.27503 8.79995 9.15511C8.84962 9.0352 8.93374 8.93271 9.04166 8.8606C9.14958 8.78849 9.27646 8.75 9.40625 8.75C9.5803 8.75 9.74722 8.81914 9.87029 8.94221C9.99336 9.06528 10.0625 9.2322 10.0625 9.40625Z" fill="#636363"/>
</svg>
