<svg width="14" height="14" viewBox="0 0 14 14" fill="none" xmlns="http://www.w3.org/2000/svg">
<path opacity="0.2" d="M12.25 7C12.25 8.03835 11.9421 9.05339 11.3652 9.91674C10.7883 10.7801 9.9684 11.453 9.00909 11.8504C8.04978 12.2477 6.99418 12.3517 5.97578 12.1491C4.95738 11.9465 4.02192 11.4465 3.28769 10.7123C2.55347 9.97808 2.05345 9.04262 1.85088 8.02422C1.64831 7.00582 1.75227 5.95022 2.14963 4.99091C2.54699 4.0316 3.2199 3.21166 4.08326 2.63478C4.94662 2.05791 5.96165 1.75 7 1.75C8.39239 1.75 9.72775 2.30312 10.7123 3.28769C11.6969 4.27226 12.25 5.60761 12.25 7Z" fill="#636363"/>
<path d="M7 1.3125C5.87512 1.3125 4.7755 1.64607 3.8402 2.27102C2.90489 2.89597 2.17591 3.78423 1.74544 4.82349C1.31496 5.86274 1.20233 7.00631 1.42179 8.10958C1.64124 9.21284 2.18292 10.2263 2.97833 11.0217C3.77374 11.8171 4.78716 12.3588 5.89043 12.5782C6.99369 12.7977 8.13726 12.685 9.17651 12.2546C10.2158 11.8241 11.104 11.0951 11.729 10.1598C12.3539 9.2245 12.6875 8.12488 12.6875 7C12.6859 5.49207 12.0862 4.04636 11.0199 2.98009C9.95364 1.91382 8.50793 1.31409 7 1.3125ZM7 11.8125C6.04818 11.8125 5.11773 11.5303 4.32632 11.0014C3.53491 10.4726 2.91808 9.72103 2.55383 8.84166C2.18959 7.96229 2.09428 6.99466 2.27997 6.06113C2.46566 5.12759 2.92401 4.27009 3.59705 3.59705C4.27009 2.92401 5.1276 2.46566 6.06113 2.27997C6.99466 2.09428 7.9623 2.18958 8.84167 2.55383C9.72104 2.91808 10.4726 3.53491 11.0014 4.32632C11.5303 5.11773 11.8125 6.04818 11.8125 7C11.8111 8.27591 11.3036 9.49915 10.4014 10.4014C9.49915 11.3036 8.27591 11.8111 7 11.8125ZM10.5 7C10.5 7.11603 10.4539 7.22731 10.3719 7.30936C10.2898 7.39141 10.1785 7.4375 10.0625 7.4375H7C6.88397 7.4375 6.77269 7.39141 6.69064 7.30936C6.6086 7.22731 6.5625 7.11603 6.5625 7V3.9375C6.5625 3.82147 6.6086 3.71019 6.69064 3.62814C6.77269 3.54609 6.88397 3.5 7 3.5C7.11603 3.5 7.22731 3.54609 7.30936 3.62814C7.39141 3.71019 7.4375 3.82147 7.4375 3.9375V6.5625H10.0625C10.1785 6.5625 10.2898 6.60859 10.3719 6.69064C10.4539 6.77269 10.5 6.88397 10.5 7Z" fill="#636363"/>
</svg>
