<svg width="14" height="14" viewBox="0 0 14 14" fill="none" xmlns="http://www.w3.org/2000/svg">
<path opacity="0.2" d="M9.1875 7.875C9.1875 8.30765 9.05921 8.73058 8.81884 9.09031C8.57848 9.45004 8.23683 9.73042 7.83712 9.89599C7.43741 10.0616 6.99757 10.1049 6.57324 10.0205C6.14891 9.93606 5.75913 9.72772 5.4532 9.4218C5.14728 9.11587 4.93894 8.72609 4.85453 8.30176C4.77013 7.87743 4.81345 7.43759 4.97901 7.03788C5.14458 6.63817 5.42496 6.29653 5.78469 6.05616C6.14442 5.81579 6.56735 5.6875 7 5.6875C7.58016 5.6875 8.13656 5.91797 8.5468 6.3282C8.95703 6.73844 9.1875 7.29484 9.1875 7.875ZM3.5 3.0625C3.15388 3.0625 2.81554 3.16514 2.52775 3.35743C2.23997 3.54972 2.01566 3.82303 1.88321 4.1428C1.75076 4.46257 1.7161 4.81444 1.78363 5.15391C1.85115 5.49337 2.01782 5.8052 2.26256 6.04994C2.50731 6.29468 2.81913 6.46135 3.15859 6.52887C3.49806 6.5964 3.84993 6.56174 4.1697 6.42929C4.48947 6.29684 4.76278 6.07253 4.95507 5.78475C5.14736 5.49696 5.25 5.15862 5.25 4.8125C5.25 4.34837 5.06563 3.90325 4.73744 3.57506C4.40925 3.24687 3.96413 3.0625 3.5 3.0625ZM10.5 3.0625C10.1539 3.0625 9.81554 3.16514 9.52775 3.35743C9.23997 3.54972 9.01566 3.82303 8.88321 4.1428C8.75076 4.46257 8.7161 4.81444 8.78363 5.15391C8.85115 5.49337 9.01782 5.8052 9.26256 6.04994C9.50731 6.29468 9.81913 6.46135 10.1586 6.52887C10.4981 6.5964 10.8499 6.56174 11.1697 6.42929C11.4895 6.29684 11.7628 6.07253 11.9551 5.78475C12.1474 5.49696 12.25 5.15862 12.25 4.8125C12.25 4.34837 12.0656 3.90325 11.7374 3.57506C11.4092 3.24687 10.9641 3.0625 10.5 3.0625Z" fill="#1362C4"/>
<path d="M13.3875 8.22502C13.3416 8.25949 13.2893 8.28457 13.2336 8.29883C13.178 8.31309 13.12 8.31624 13.0632 8.30812C13.0063 8.29999 12.9516 8.28075 12.9021 8.25147C12.8527 8.2222 12.8095 8.18348 12.775 8.13752C12.5113 7.78307 12.1681 7.49548 11.773 7.29791C11.3778 7.10034 10.9418 6.9983 10.5 7.00002C10.384 7.00002 10.2727 6.95392 10.1907 6.87188C10.1086 6.78983 10.0625 6.67855 10.0625 6.56252C10.0625 6.44648 10.1086 6.3352 10.1907 6.25316C10.2727 6.17111 10.384 6.12502 10.5 6.12502C10.7455 6.12499 10.9861 6.05613 11.1944 5.92625C11.4027 5.79637 11.5704 5.61067 11.6784 5.39026C11.7865 5.16984 11.8306 4.92354 11.8057 4.67933C11.7807 4.43512 11.6878 4.20279 11.5375 4.00873C11.3872 3.81467 11.1854 3.66666 10.9552 3.58151C10.725 3.49636 10.4755 3.47748 10.235 3.52702C9.99462 3.57656 9.77291 3.69254 9.59509 3.86177C9.41727 4.031 9.29048 4.24671 9.22911 4.48439C9.21474 4.54005 9.18956 4.59233 9.15499 4.63826C9.12042 4.68418 9.07714 4.72285 9.02763 4.75205C8.97812 4.78125 8.92334 4.80041 8.86642 4.80844C8.8095 4.81647 8.75156 4.81321 8.6959 4.79884C8.64025 4.78448 8.58796 4.7593 8.54204 4.72473C8.49611 4.69016 8.45745 4.64688 8.42825 4.59737C8.39905 4.54786 8.37989 4.49308 8.37186 4.43616C8.36383 4.37924 8.36709 4.3213 8.38145 4.26564C8.46663 3.93605 8.62756 3.63088 8.85143 3.37443C9.0753 3.11797 9.35594 2.91731 9.67101 2.7884C9.98608 2.65948 10.3269 2.60589 10.6663 2.63187C11.0057 2.65785 11.3344 2.76269 11.6262 2.93805C11.918 3.11342 12.1648 3.35446 12.347 3.64199C12.5293 3.92953 12.6419 4.25564 12.6759 4.59436C12.7099 4.93307 12.6644 5.27506 12.543 5.5931C12.4216 5.91114 12.2277 6.19645 11.9766 6.42634C12.5715 6.68392 13.0887 7.09266 13.4767 7.61197C13.5112 7.65805 13.5362 7.71048 13.5504 7.76625C13.5646 7.82202 13.5676 7.88004 13.5593 7.93699C13.551 7.99393 13.5316 8.04869 13.5021 8.09811C13.4726 8.14754 13.4337 8.19066 13.3875 8.22502ZM10.441 11.5938C10.4715 11.6436 10.4918 11.699 10.5006 11.7567C10.5093 11.8145 10.5065 11.8734 10.4921 11.9301C10.4777 11.9867 10.4522 12.0399 10.4169 12.0865C10.3817 12.1331 10.3374 12.1721 10.2869 12.2013C10.2363 12.2306 10.1803 12.2493 10.1224 12.2566C10.0644 12.2639 10.0056 12.2594 9.94933 12.2436C9.8931 12.2277 9.84061 12.2008 9.79497 12.1643C9.74932 12.1278 9.71144 12.0826 9.68356 12.0313C9.40793 11.5647 9.01544 11.1781 8.5448 10.9095C8.07417 10.6409 7.54165 10.4997 6.99977 10.4997C6.45789 10.4997 5.92537 10.6409 5.45474 10.9095C4.98411 11.1781 4.59162 11.5647 4.31598 12.0313C4.28863 12.0835 4.25099 12.1298 4.20532 12.1671C4.15964 12.2045 4.10688 12.2322 4.05022 12.2486C3.99355 12.2651 3.93414 12.2699 3.87556 12.2628C3.81699 12.2557 3.76046 12.2368 3.70938 12.2072C3.65829 12.1777 3.61371 12.1382 3.57831 12.091C3.54291 12.0438 3.51742 11.9899 3.50338 11.9326C3.48934 11.8752 3.48704 11.8157 3.49662 11.7575C3.5062 11.6992 3.52745 11.6436 3.55911 11.5938C3.98326 10.865 4.62999 10.2915 5.40426 9.95752C4.96858 9.62394 4.64839 9.16223 4.48868 8.63727C4.32898 8.11231 4.3378 7.5505 4.5139 7.03081C4.69001 6.51112 5.02454 6.05968 5.47047 5.73995C5.91641 5.42022 6.45133 5.24826 7.00004 5.24826C7.54876 5.24826 8.08368 5.42022 8.52962 5.73995C8.97555 6.05968 9.31008 6.51112 9.48618 7.03081C9.66229 7.5505 9.67111 8.11231 9.5114 8.63727C9.3517 9.16223 9.03151 9.62394 8.59582 9.95752C9.37009 10.2915 10.0168 10.865 10.441 11.5938ZM7.00004 9.62502C7.34616 9.62502 7.68451 9.52238 7.97229 9.33009C8.26008 9.1378 8.48438 8.86448 8.61683 8.54471C8.74929 8.22494 8.78394 7.87308 8.71642 7.53361C8.64889 7.19414 8.48222 6.88232 8.23748 6.63758C7.99274 6.39284 7.68092 6.22617 7.34145 6.15864C7.00199 6.09112 6.65012 6.12577 6.33035 6.25823C6.01058 6.39068 5.73726 6.61498 5.54497 6.90277C5.35268 7.19055 5.25004 7.5289 5.25004 7.87502C5.25004 8.33915 5.43442 8.78426 5.76261 9.11245C6.0908 9.44064 6.53592 9.62502 7.00004 9.62502ZM3.93754 6.56252C3.93754 6.44648 3.89145 6.3352 3.8094 6.25316C3.72736 6.17111 3.61608 6.12502 3.50004 6.12502C3.25457 6.12499 3.01402 6.05613 2.80571 5.92625C2.59741 5.79637 2.42971 5.61067 2.32165 5.39026C2.2136 5.16984 2.16952 4.92354 2.19443 4.67933C2.21934 4.43512 2.31224 4.20279 2.46257 4.00873C2.6129 3.81467 2.81464 3.66666 3.04488 3.58151C3.27511 3.49636 3.52462 3.47748 3.76504 3.52702C4.00547 3.57656 4.22718 3.69254 4.405 3.86177C4.58282 4.031 4.70961 4.24671 4.77098 4.48439C4.79999 4.5968 4.87246 4.69308 4.97246 4.75205C5.07245 4.81102 5.19178 4.82785 5.30418 4.79884C5.41659 4.76984 5.51287 4.69736 5.57184 4.59737C5.63081 4.49737 5.64765 4.37805 5.61864 4.26564C5.53346 3.93605 5.37253 3.63088 5.14866 3.37443C4.92479 3.11797 4.64415 2.91731 4.32908 2.7884C4.01401 2.65948 3.6732 2.60589 3.33377 2.63187C2.99434 2.65785 2.66566 2.76269 2.37388 2.93805C2.0821 3.11342 1.83527 3.35446 1.65304 3.64199C1.47081 3.92953 1.3582 4.25564 1.32418 4.59436C1.29015 4.93307 1.33565 5.27506 1.45705 5.5931C1.57845 5.91114 1.77241 6.19645 2.02348 6.42634C1.42918 6.68416 0.912622 7.09289 0.525044 7.61197C0.455352 7.7048 0.425389 7.8215 0.441748 7.93642C0.458106 8.05134 0.519445 8.15505 0.61227 8.22474C0.705096 8.29444 0.821805 8.3244 0.936722 8.30804C1.05164 8.29168 1.15535 8.23034 1.22504 8.13752C1.48874 7.78307 1.83197 7.49548 2.22711 7.29791C2.62226 7.10034 3.05827 6.9983 3.50004 7.00002C3.61608 7.00002 3.72736 6.95392 3.8094 6.87188C3.89145 6.78983 3.93754 6.67855 3.93754 6.56252Z" fill="#1362C4"/>
</svg>
