<svg width="24" height="24" viewBox="0 0 24 24" fill="none" xmlns="http://www.w3.org/2000/svg">
<path d="M0 12C0 5.37258 5.37258 0 12 0C18.6274 0 24 5.37258 24 12C24 18.6274 18.6274 24 12 24C5.37258 24 0 18.6274 0 12Z" fill="#E8E8E8"/>
<path d="M12 3.875C10.393 3.875 8.82214 4.35152 7.486 5.24431C6.14985 6.1371 5.10844 7.40605 4.49348 8.8907C3.87852 10.3753 3.71762 12.009 4.03112 13.5851C4.34463 15.1612 5.11846 16.6089 6.25476 17.7452C7.39106 18.8815 8.8388 19.6554 10.4149 19.9689C11.991 20.2824 13.6247 20.1215 15.1093 19.5065C16.594 18.8916 17.8629 17.8502 18.7557 16.514C19.6485 15.1779 20.125 13.607 20.125 12C20.1227 9.84581 19.266 7.78051 17.7427 6.25727C16.2195 4.73403 14.1542 3.87727 12 3.875ZM12.625 18.8461V13.875H14.5C14.6658 13.875 14.8247 13.8092 14.9419 13.6919C15.0592 13.5747 15.125 13.4158 15.125 13.25C15.125 13.0842 15.0592 12.9253 14.9419 12.8081C14.8247 12.6908 14.6658 12.625 14.5 12.625H12.625V10.75C12.625 10.4185 12.7567 10.1005 12.9911 9.86612C13.2255 9.6317 13.5435 9.5 13.875 9.5H15.125C15.2908 9.5 15.4497 9.43415 15.5669 9.31694C15.6842 9.19973 15.75 9.04076 15.75 8.875C15.75 8.70924 15.6842 8.55027 15.5669 8.43306C15.4497 8.31585 15.2908 8.25 15.125 8.25H13.875C13.212 8.25 12.5761 8.51339 12.1072 8.98223C11.6384 9.45107 11.375 10.087 11.375 10.75V12.625H9.5C9.33424 12.625 9.17527 12.6908 9.05806 12.8081C8.94085 12.9253 8.875 13.0842 8.875 13.25C8.875 13.4158 8.94085 13.5747 9.05806 13.6919C9.17527 13.8092 9.33424 13.875 9.5 13.875H11.375V18.8461C9.61312 18.6853 7.98107 17.8514 6.81831 16.5179C5.65556 15.1845 5.05162 13.4541 5.13212 11.6867C5.21263 9.91936 5.97137 8.25106 7.25053 7.02883C8.52969 5.80661 10.2308 5.12456 12 5.12456C13.7692 5.12456 15.4703 5.80661 16.7495 7.02883C18.0286 8.25106 18.7874 9.91936 18.8679 11.6867C18.9484 13.4541 18.3444 15.1845 17.1817 16.5179C16.0189 17.8514 14.3869 18.6853 12.625 18.8461Z" fill="#202020"/>
</svg>
