<svg width="24" height="24" viewBox="0 0 24 24" fill="none" xmlns="http://www.w3.org/2000/svg">
<path d="M0 12C0 5.37258 5.37258 0 12 0C18.6274 0 24 5.37258 24 12C24 18.6274 18.6274 24 12 24C5.37258 24 0 18.6274 0 12Z" fill="#E8E8E8"/>
<path d="M12 8.25C11.2583 8.25 10.5333 8.46993 9.91661 8.88199C9.29993 9.29404 8.81928 9.87971 8.53545 10.5649C8.25162 11.2502 8.17736 12.0042 8.32206 12.7316C8.46675 13.459 8.8239 14.1272 9.34835 14.6517C9.8728 15.1761 10.541 15.5333 11.2684 15.6779C11.9958 15.8226 12.7498 15.7484 13.4351 15.4645C14.1203 15.1807 14.706 14.7001 15.118 14.0834C15.5301 13.4667 15.75 12.7417 15.75 12C15.749 11.0058 15.3535 10.0525 14.6505 9.34949C13.9475 8.64645 12.9942 8.25103 12 8.25ZM12 14.5C11.5055 14.5 11.0222 14.3534 10.6111 14.0787C10.2 13.804 9.87952 13.4135 9.6903 12.9567C9.50108 12.4999 9.45157 11.9972 9.54804 11.5123C9.6445 11.0273 9.8826 10.5819 10.2322 10.2322C10.5819 9.8826 11.0273 9.6445 11.5123 9.54804C11.9972 9.45157 12.4999 9.50108 12.9567 9.6903C13.4135 9.87952 13.804 10.2 14.0787 10.6111C14.3534 11.0222 14.5 11.5055 14.5 12C14.5 12.663 14.2366 13.2989 13.7678 13.7678C13.2989 14.2366 12.663 14.5 12 14.5ZM15.75 3.875H8.25C7.09006 3.87624 5.97798 4.33758 5.15778 5.15778C4.33758 5.97798 3.87624 7.09006 3.875 8.25V15.75C3.87624 16.9099 4.33758 18.022 5.15778 18.8422C5.97798 19.6624 7.09006 20.1238 8.25 20.125H15.75C16.9099 20.1238 18.022 19.6624 18.8422 18.8422C19.6624 18.022 20.1238 16.9099 20.125 15.75V8.25C20.1238 7.09006 19.6624 5.97798 18.8422 5.15778C18.022 4.33758 16.9099 3.87624 15.75 3.875ZM18.875 15.75C18.875 16.5788 18.5458 17.3737 17.9597 17.9597C17.3737 18.5458 16.5788 18.875 15.75 18.875H8.25C7.4212 18.875 6.62634 18.5458 6.04029 17.9597C5.45424 17.3737 5.125 16.5788 5.125 15.75V8.25C5.125 7.4212 5.45424 6.62634 6.04029 6.04029C6.62634 5.45424 7.4212 5.125 8.25 5.125H15.75C16.5788 5.125 17.3737 5.45424 17.9597 6.04029C18.5458 6.62634 18.875 7.4212 18.875 8.25V15.75ZM17 7.9375C17 8.12292 16.945 8.30418 16.842 8.45835C16.739 8.61252 16.5926 8.73268 16.4213 8.80364C16.25 8.87459 16.0615 8.89316 15.8796 8.85699C15.6977 8.82081 15.5307 8.73152 15.3996 8.60041C15.2685 8.4693 15.1792 8.30225 15.143 8.1204C15.1068 7.93854 15.1254 7.75004 15.1964 7.57873C15.2673 7.40743 15.3875 7.26101 15.5417 7.158C15.6958 7.05498 15.8771 7 16.0625 7C16.3111 7 16.5496 7.09877 16.7254 7.27459C16.9012 7.4504 17 7.68886 17 7.9375Z" fill="#202020"/>
</svg>
